<svg width="90" height="30" viewBox="0 0 90 30" fill="none" xmlns="http://www.w3.org/2000/svg"><path d="M2 30C0.895429 30 0 29.1046 0 28L0 2C0 0.89543 0.89543 0 2 0H3.66667C4.77124 0 5.66667 0.895432 5.66667 2L5.66667 28C5.66667 29.1046 4.77124 30 3.66667 30H2Z" fill="#06AED4"></path><path d="M9.66662 30C8.56206 30 7.66663 29.1046 7.66663 28L7.66663 5C7.66663 3.89543 8.56206 3 9.66663 3H11.3333C12.4379 3 13.3333 3.89543 13.3333 5L13.3333 28C13.3333 29.1046 12.4379 30 11.3333 30H9.66662Z" fill="#06AED4"></path><path d="M17.3334 30C16.2288 30 15.3334 29.1046 15.3334 28L15.3334 9C15.3334 7.89543 16.2288 7 17.3334 7H19C20.1046 7 21 7.89543 21 9V28C21 29.1046 20.1046 30 19 30H17.3334Z" fill="#06AED4"></path><path d="M25 30C23.8954 30 23 29.1046 23 28V17C23 15.8954 23.8954 15 25 15H26.6667C27.7712 15 28.6667 15.8954 28.6667 17V28C28.6667 29.1046 27.7712 30 26.6667 30H25Z" fill="#06AED4"></path><path d="M32.6666 30C31.5621 30 30.6666 29.1046 30.6666 28V21C30.6666 19.8954 31.5621 19 32.6666 19H34.3333C35.4379 19 36.3333 19.8954 36.3333 21V28C36.3333 29.1046 35.4379 30 34.3333 30H32.6666Z" fill="#06AED4"></path><path d="M40.3334 30C39.2288 30 38.3334 29.1046 38.3334 28V24C38.3334 22.8954 39.2288 22 40.3334 22H42C43.1046 22 44 22.8954 44 24V28C44 29.1046 43.1046 30 42 30H40.3334Z" fill="#06AED4"></path><path d="M48 30C46.8954 30 46 29.1046 46 28V24C46 22.8954 46.8954 22 48 22H49.6667C50.7712 22 51.6667 22.8954 51.6667 24V28C51.6667 29.1046 50.7712 30 49.6667 30H48Z" fill="#6267AB"></path><path d="M55.6666 30C54.5621 30 53.6666 29.1046 53.6666 28V21C53.6666 19.8954 54.5621 19 55.6666 19H57.3333C58.4379 19 59.3333 19.8954 59.3333 21V28C59.3333 29.1046 58.4379 30 57.3333 30H55.6666Z" fill="#6267AB"></path><path d="M63.3334 30C62.2288 30 61.3334 29.1046 61.3334 28V17C61.3334 15.8954 62.2288 15 63.3334 15H65C66.1046 15 67 15.8954 67 17V28C67 29.1046 66.1046 30 65 30H63.3334Z" fill="#6267AB"></path><path d="M71 30C69.8954 30 69 29.1046 69 28V9C69 7.89543 69.8954 7 71 7H72.6667C73.7712 7 74.6667 7.89543 74.6667 9V28C74.6667 29.1046 73.7712 30 72.6667 30H71Z" fill="#6267AB"></path><path d="M78.6666 30C77.5621 30 76.6666 29.1046 76.6666 28V5C76.6666 3.89543 77.5621 3 78.6666 3H80.3333C81.4379 3 82.3333 3.89543 82.3333 5V28C82.3333 29.1046 81.4379 30 80.3333 30H78.6666Z" fill="#6267AB"></path><path d="M86.3334 30C85.2288 30 84.3334 29.1046 84.3334 28V2C84.3334 0.89543 85.2288 0 86.3334 0H88C89.1046 0 90 0.895432 90 2V28C90 29.1046 89.1046 30 88 30H86.3334Z" fill="#6267AB"></path></svg>