<svg width="90" height="30" viewBox="0 0 90 30" fill="none" xmlns="http://www.w3.org/2000/svg"><path d="M2 30C0.895432 30 0 29.1046 0 28L0 22C0 20.8954 0.89543 20 2 20H3.07692C4.18149 20 5.07692 20.8954 5.07692 22L5.07692 28C5.07692 29.1046 4.18149 30 3.07692 30H2Z" fill="#434562"></path><path d="M9.07691 30C7.97234 30 7.0769 29.1046 7.0769 28L7.0769 22C7.0769 20.8954 7.97233 20 9.0769 20H10.1538C11.2584 20 12.1538 20.8954 12.1538 22V28C12.1538 29.1046 11.2584 30 10.1538 30H9.07691Z" fill="#434562"></path><path d="M16.1538 30C15.0492 30 14.1538 29.1046 14.1538 28V22C14.1538 20.8954 15.0492 20 16.1538 20H17.2307C18.3353 20 19.2307 20.8954 19.2307 22V28C19.2307 29.1046 18.3353 30 17.2307 30H16.1538Z" fill="#434562"></path><path d="M23.2307 30C22.1261 30 21.2307 29.1046 21.2307 28V2C21.2307 0.89543 22.1261 0 23.2307 0H24.3076C25.4122 0 26.3076 0.895432 26.3076 2V28C26.3076 29.1046 25.4122 30 24.3076 30H23.2307Z" fill="#434562"></path><path d="M30.3077 30C29.2032 30 28.3077 29.1046 28.3077 28V2C28.3077 0.89543 29.2032 0 30.3077 0H31.3847C32.4892 0 33.3847 0.895432 33.3847 2V28C33.3847 29.1046 32.4892 30 31.3847 30H30.3077Z" fill="#434562"></path><path d="M37.3846 30C36.2801 30 35.3846 29.1046 35.3846 28V2C35.3846 0.89543 36.2801 0 37.3846 0H38.4616C39.5661 0 40.4616 0.895432 40.4616 2V28C40.4616 29.1046 39.5661 30 38.4616 30H37.3846Z" fill="#434562"></path><path d="M44.4615 30C43.357 30 42.4615 29.1046 42.4615 28V18C42.4615 16.8954 43.357 16 44.4615 16H45.5385C46.643 16 47.5385 16.8954 47.5385 18V28C47.5385 29.1046 46.643 30 45.5385 30H44.4615Z" fill="#434562"></path><path d="M44.4615 14C43.357 14 42.4615 13.1046 42.4615 12V2C42.4615 0.895431 43.357 0 44.4615 0H45.5385C46.643 0 47.5385 0.895431 47.5385 2V12C47.5385 13.1046 46.643 14 45.5385 14H44.4615Z" fill="#434562"></path><path d="M51.5385 30C50.4339 30 49.5385 29.1046 49.5385 28V2C49.5385 0.89543 50.4339 0 51.5385 0H52.6154C53.7199 0 54.6154 0.895432 54.6154 2V28C54.6154 29.1046 53.7199 30 52.6154 30H51.5385Z" fill="#434562"></path><path d="M58.6154 30C57.5108 30 56.6154 29.1046 56.6154 28V2C56.6154 0.89543 57.5108 0 58.6154 0H59.6923C60.7968 0 61.6923 0.895432 61.6923 2V28C61.6923 29.1046 60.7968 30 59.6923 30H58.6154Z" fill="#434562"></path><path d="M65.6923 30C64.5877 30 63.6923 29.1046 63.6923 28V2C63.6923 0.89543 64.5877 0 65.6923 0H66.7692C67.8738 0 68.7692 0.895432 68.7692 2V28C68.7692 29.1046 67.8738 30 66.7692 30H65.6923Z" fill="#434562"></path><path d="M72.7693 30C71.6647 30 70.7693 29.1046 70.7693 28V22C70.7693 20.8954 71.6647 20 72.7693 20H73.8462C74.9508 20 75.8462 20.8954 75.8462 22V28C75.8462 29.1046 74.9508 30 73.8462 30H72.7693Z" fill="#434562"></path><path d="M79.8462 30C78.7416 30 77.8462 29.1046 77.8462 28V22C77.8462 20.8954 78.7416 20 79.8462 20H80.9231C82.0277 20 82.9231 20.8954 82.9231 22V28C82.9231 29.1046 82.0277 30 80.9231 30H79.8462Z" fill="#434562"></path><path d="M86.9231 30C85.8185 30 84.9231 29.1046 84.9231 28V22C84.9231 20.8954 85.8185 20 86.9231 20H88C89.1046 20 90 20.8954 90 22V28C90 29.1046 89.1046 30 88 30H86.9231Z" fill="#434562"></path></svg>